<svg width="290" height="77" viewBox="0 0 290 77" fill="none" xmlns="http://www.w3.org/2000/svg">
<path fill-rule="evenodd" clip-rule="evenodd" d="M13.8785 29.5607L20.3906 11.5122L26.9047 29.5607H13.8785ZM31.7897 42.8753L31.9321 43.587C31.9321 44.3942 31.2683 44.9284 29.9407 45.1896C27.509 45.5204 25.0538 45.6521 22.6001 45.5833V46.2921H48.8904V45.5833C45.327 45.5833 43.1889 45.4061 42.4759 45.0518C41.763 44.6974 41.0504 43.549 40.3381 41.6065L24.9481 0H23.5222L11.4738 33.3702C9.90587 37.6778 8.62304 40.5177 7.62532 41.89C6.76768 43.0863 5.62036 44.051 4.28827 44.6958C2.95618 45.3407 1.48182 45.6452 0 45.5814V46.2901H18.1024V45.5814C16.1586 45.6833 14.2209 45.2894 12.4755 44.4375C11.8188 44.0563 11.2838 43.5001 10.9317 42.8326C10.5795 42.165 10.4244 41.413 10.4841 40.6625C10.5343 39.2717 10.8214 37.8992 11.3334 36.6029L13.524 30.3354H27.2582L31.7897 42.8753ZM85.1709 46.928L96.4446 13.3461C97.5784 10.1305 98.4291 7.92978 98.9967 6.74393C99.7423 5.03944 100.992 3.59808 102.583 2.60954C104.173 1.62101 106.029 1.13164 107.905 1.20586V0.566998H89.4466V1.20487C94.3396 1.20487 96.7865 3.07518 96.7872 6.81579C96.6807 8.85177 96.2776 10.8619 95.5903 12.784L88.0227 35.1608L76.8317 5.18272C76.6319 4.65843 76.5117 4.10777 76.4752 3.54866C76.4752 2.60301 77.0809 1.97564 78.2924 1.66654C80.5146 1.27724 82.7723 1.12248 85.0276 1.20487V0.566998H59.0857V1.20487C62.7441 1.20487 64.9772 1.3942 65.785 1.77285C66.5929 2.15151 67.3294 3.28748 67.9946 5.18075L83.1755 46.928H85.167H85.1709ZM132.685 29.5607L139.197 11.5122L145.71 29.5607H132.685V29.5607ZM150.597 42.8753L150.739 43.587C150.739 44.3942 150.075 44.9284 148.747 45.1896C146.315 45.5204 143.86 45.6521 141.406 45.5833V46.2921H167.701V45.5833C164.138 45.5833 162 45.4061 161.287 45.0518C160.574 44.6974 159.861 43.549 159.149 41.6065L143.754 0H142.329L130.281 33.3702C128.713 37.6778 127.43 40.5177 126.432 41.89C125.574 43.0864 124.427 44.0511 123.095 44.696C121.762 45.3408 120.288 45.6452 118.806 45.5814V46.2901H136.913V45.5814C134.969 45.6851 133.03 45.2925 131.283 44.4415C130.626 44.0603 130.091 43.5042 129.739 42.8366C129.387 42.169 129.232 41.417 129.292 40.6664C129.342 39.2756 129.629 37.9032 130.141 36.6068L132.332 30.3393H146.066L150.597 42.8753ZM222.08 40.3356C226.498 36.1297 228.707 30.5769 228.708 23.6771C228.803 20.4405 228.183 17.2222 226.891 14.2469C225.598 11.2717 223.665 8.611 221.225 6.45059C217.333 2.70207 212.121 0.592841 206.687 0.566998H178.89V1.20487C183.166 1.20487 186.064 1.48903 187.585 2.05734C187.949 2.14187 188.274 2.3417 188.512 2.62631C188.763 3.45536 188.859 4.32254 188.797 5.18567V41.5976C188.87 42.4843 188.773 43.3765 188.512 44.2278C188.252 44.5272 187.904 44.7386 187.516 44.8323C186.495 45.1286 185.442 45.3076 184.38 45.3658C182.859 45.5075 181.03 45.5784 178.892 45.5784V46.2872H206.614C209.463 46.3588 212.298 45.8692 214.953 44.8469C217.608 43.8246 220.031 42.2901 222.08 40.3327V40.3356ZM201.853 45.5459C200.818 45.5889 199.782 45.4811 198.778 45.226C198.559 45.149 198.36 45.0265 198.194 44.8669C198.027 44.7073 197.897 44.5142 197.812 44.3007C197.595 43.4174 197.511 42.5072 197.563 41.5996V5.18764C197.501 4.29163 197.585 3.39156 197.812 2.52196C197.916 2.32729 198.059 2.15491 198.231 2.01471C198.402 1.8745 198.601 1.76923 198.814 1.70493C199.65 1.45881 200.516 1.32635 201.388 1.31118C202.603 1.24031 204.354 1.20454 206.643 1.20389C210.981 1.20389 214.27 3.28977 216.511 7.46154C218.608 11.3492 219.657 16.754 219.657 23.6761C219.657 30.9775 218.62 36.4533 216.547 40.1033C214.474 43.7534 211.173 45.5787 206.643 45.5794C205.022 45.5807 203.425 45.5695 201.853 45.5459V45.5459ZM254.984 29.5607L261.496 11.5122L268.009 29.5607H254.984V29.5607ZM272.894 42.8753L273.038 43.587C273.038 44.3942 272.372 44.9284 271.041 45.1896C268.61 45.5204 266.154 45.6521 263.701 45.5833V46.2921H290V45.5833C286.437 45.5833 284.298 45.4061 283.585 45.0518C282.873 44.6974 282.16 43.549 281.448 41.6065L266.053 0H264.628L252.579 33.3702C251.011 37.6772 249.73 40.5171 248.734 41.89C247.876 43.0864 246.729 44.0511 245.397 44.696C244.065 45.3408 242.59 45.6452 241.109 45.5814V46.2901H259.211V45.5814C257.266 45.6852 255.327 45.2927 253.58 44.4415C252.923 44.0602 252.388 43.5041 252.036 42.8365C251.684 42.169 251.529 41.417 251.589 40.6664C251.639 39.2755 251.926 37.903 252.439 36.6068L254.63 30.3393H268.364L272.894 42.8753Z" fill="#2B2E32"/>
<path d="M31.58 63.529C32.38 63.529 33.0733 63.6286 33.66 63.8279C34.2467 64.0139 34.7533 64.2796 35.18 64.625C36.02 65.3025 36.5667 66.2524 36.82 67.4746L34.3 67.933C34.0867 67.2554 33.7533 66.7108 33.3 66.2989C32.86 65.8738 32.3067 65.6612 31.64 65.6612C30.7333 65.6612 30 66.0399 29.44 66.7971C28.84 67.6208 28.54 68.7633 28.54 70.2246C28.54 71.6727 28.8067 72.8086 29.34 73.6323C29.8733 74.4426 30.6 74.8478 31.52 74.8478C32.44 74.8478 33.1333 74.6286 33.6 74.1902C34.0667 73.7385 34.3 73.1606 34.3 72.4565H36.84C36.84 73.9046 36.3733 75.0272 35.44 75.8243C34.52 76.6081 33.2533 77 31.64 77C29.92 77 28.5533 76.4022 27.54 75.2065C26.5133 73.9843 26 72.3237 26 70.2246C26 68.099 26.5267 66.4384 27.58 65.2428C28.5933 64.1002 29.9267 63.529 31.58 63.529Z" fill="#A2A5AA"/>
<path d="M51.3558 74.6685H56.6958V76.721H48.9958V63.788H51.3558V74.6685Z" fill="#A2A5AA"/>
<path d="M71.2786 63.788H74.2386L78.4986 76.721H75.9986L75.0986 73.9312H70.2786L69.3586 76.721H66.8586L71.2786 63.788ZM70.8786 72.1576H74.5186L72.7186 66.5978L70.8786 72.1576Z" fill="#A2A5AA"/>
<path d="M97.0181 67.3551C96.8048 66.2259 96.0048 65.6612 94.6181 65.6612C93.9381 65.6612 93.4048 65.8007 93.0181 66.0797C92.6448 66.3454 92.4581 66.6709 92.4581 67.0562C92.4581 67.4414 92.5781 67.747 92.8181 67.9728C93.0715 68.1854 93.4581 68.3847 93.9781 68.5707L96.7981 69.6667C97.7581 70.0387 98.4981 70.5103 99.0181 71.0815C99.5381 71.6395 99.7981 72.3436 99.7981 73.1938C99.7981 74.3629 99.3581 75.2929 98.4781 75.9837C97.5981 76.6612 96.3448 77 94.7181 77C93.2781 77 92.1115 76.648 91.2181 75.9438C90.2181 75.1733 89.6915 74.0839 89.6381 72.6757H91.9781C91.9781 73.7385 92.5315 74.4094 93.6381 74.6884C93.9715 74.7814 94.4115 74.8279 94.9581 74.8279C95.5048 74.8279 96.0115 74.6951 96.4781 74.4294C96.9448 74.1504 97.1781 73.785 97.1781 73.3333C97.1781 72.8684 97.0515 72.5163 96.7981 72.2772C96.5448 72.0248 96.1315 71.7923 95.5581 71.5797L92.9781 70.5634C91.9781 70.1781 91.2114 69.7265 90.6781 69.2083C90.1448 68.6902 89.8781 67.9728 89.8781 67.0562C89.8781 65.9801 90.2981 65.1298 91.1381 64.5054C91.9915 63.8545 93.1448 63.529 94.5981 63.529C96.0648 63.529 97.1915 63.8678 97.9781 64.5453C98.7781 65.2095 99.2381 66.1461 99.3581 67.3551H97.0181Z" fill="#A2A5AA"/>
<path d="M119.172 67.3551C118.959 66.2259 118.159 65.6612 116.772 65.6612C116.092 65.6612 115.559 65.8007 115.172 66.0797C114.799 66.3454 114.612 66.6709 114.612 67.0562C114.612 67.4414 114.732 67.747 114.972 67.9728C115.225 68.1854 115.612 68.3847 116.132 68.5707L118.952 69.6667C119.912 70.0387 120.652 70.5103 121.172 71.0815C121.692 71.6395 121.952 72.3436 121.952 73.1938C121.952 74.3629 121.512 75.2929 120.632 75.9837C119.752 76.6612 118.499 77 116.872 77C115.432 77 114.265 76.648 113.372 75.9438C112.372 75.1733 111.845 74.0839 111.792 72.6757H114.132C114.132 73.7385 114.685 74.4094 115.792 74.6884C116.125 74.7814 116.565 74.8279 117.112 74.8279C117.659 74.8279 118.165 74.6951 118.632 74.4294C119.099 74.1504 119.332 73.785 119.332 73.3333C119.332 72.8684 119.205 72.5163 118.952 72.2772C118.699 72.0248 118.285 71.7923 117.712 71.5797L115.132 70.5634C114.132 70.1781 113.365 69.7265 112.832 69.2083C112.299 68.6902 112.032 67.9728 112.032 67.0562C112.032 65.9801 112.452 65.1298 113.292 64.5054C114.145 63.8545 115.299 63.529 116.752 63.529C118.219 63.529 119.345 63.8678 120.132 64.5453C120.932 65.2095 121.392 66.1461 121.512 67.3551H119.172Z" fill="#A2A5AA"/>
<path d="M134.506 63.788H136.866V76.721H134.506V63.788Z" fill="#A2A5AA"/>
<path d="M154.64 63.529C155.44 63.529 156.133 63.6286 156.72 63.8279C157.307 64.0139 157.813 64.2796 158.24 64.625C159.08 65.3025 159.627 66.2524 159.88 67.4746L157.36 67.933C157.147 67.2554 156.813 66.7108 156.36 66.2989C155.92 65.8738 155.367 65.6612 154.7 65.6612C153.793 65.6612 153.06 66.0399 152.5 66.7971C151.9 67.6208 151.6 68.7633 151.6 70.2246C151.6 71.6727 151.867 72.8086 152.4 73.6323C152.933 74.4426 153.66 74.8478 154.58 74.8478C155.5 74.8478 156.193 74.6286 156.66 74.1902C157.127 73.7385 157.36 73.1606 157.36 72.4565H159.9C159.9 73.9046 159.433 75.0272 158.5 75.8243C157.58 76.6081 156.313 77 154.7 77C152.98 77 151.613 76.4022 150.6 75.2065C149.573 73.9843 149.06 72.3237 149.06 70.2246C149.06 68.099 149.587 66.4384 150.64 65.2428C151.653 64.1002 152.987 63.529 154.64 63.529Z" fill="#A2A5AA"/>
<path d="M193.335 67.3551C193.121 66.2259 192.321 65.6612 190.935 65.6612C190.255 65.6612 189.721 65.8007 189.335 66.0797C188.961 66.3454 188.775 66.6709 188.775 67.0562C188.775 67.4414 188.895 67.747 189.135 67.9728C189.388 68.1854 189.775 68.3847 190.295 68.5707L193.115 69.6667C194.075 70.0387 194.815 70.5103 195.335 71.0815C195.855 71.6395 196.115 72.3436 196.115 73.1938C196.115 74.3629 195.675 75.2929 194.795 75.9837C193.915 76.6612 192.661 77 191.035 77C189.595 77 188.428 76.648 187.535 75.9438C186.535 75.1733 186.008 74.0839 185.955 72.6757H188.295C188.295 73.7385 188.848 74.4094 189.955 74.6884C190.288 74.7814 190.728 74.8279 191.275 74.8279C191.821 74.8279 192.328 74.6951 192.795 74.4294C193.261 74.1504 193.495 73.785 193.495 73.3333C193.495 72.8684 193.368 72.5163 193.115 72.2772C192.861 72.0248 192.448 71.7923 191.875 71.5797L189.295 70.5634C188.295 70.1781 187.528 69.7265 186.995 69.2083C186.461 68.6902 186.195 67.9728 186.195 67.0562C186.195 65.9801 186.615 65.1298 187.455 64.5054C188.308 63.8545 189.461 63.529 190.915 63.529C192.381 63.529 193.508 63.8678 194.295 64.5453C195.095 65.2095 195.555 66.1461 195.675 67.3551H193.335Z" fill="#A2A5AA"/>
<path d="M211.028 63.788V69.1884H216.688V63.788H219.048V76.721H216.688V71.2409H211.028V76.721H208.668V63.788H211.028Z" fill="#A2A5AA"/>
<path d="M237.17 63.529C238.036 63.529 238.83 63.6751 239.55 63.9674C240.27 64.2464 240.89 64.6649 241.41 65.2228C242.503 66.3919 243.05 68.0658 243.05 70.2446C243.05 72.4366 242.503 74.1304 241.41 75.3261C240.37 76.442 238.95 77 237.15 77C235.363 77 233.95 76.4288 232.91 75.2862C231.816 74.1039 231.27 72.4233 231.27 70.2446C231.27 68.0393 231.816 66.3521 232.91 65.183C233.936 64.0803 235.356 63.529 237.17 63.529ZM240.61 70.2844C240.61 68.7965 240.296 67.654 239.67 66.8569C239.056 66.0465 238.223 65.6413 237.17 65.6413C236.116 65.6413 235.276 66.0465 234.65 66.8569C234.023 67.654 233.71 68.7965 233.71 70.2844C233.71 71.7591 234.023 72.8949 234.65 73.692C235.276 74.4759 236.116 74.8678 237.17 74.8678C238.223 74.8678 239.056 74.4759 239.67 73.692C240.296 72.8949 240.61 71.7591 240.61 70.2844Z" fill="#A2A5AA"/>
<path d="M259.762 63.788C261.229 63.788 262.369 64.1467 263.182 64.8641C264.009 65.5682 264.422 66.5845 264.422 67.9131C264.422 69.2283 264.009 70.2446 263.182 70.962C262.369 71.6661 261.229 72.0181 259.762 72.0181H257.562V76.721H255.182V63.788H259.762ZM259.762 69.9656C260.495 69.9656 261.049 69.773 261.422 69.3877C261.795 69.0024 261.982 68.5109 261.982 67.9131C261.982 67.3019 261.795 66.8038 261.422 66.4185C261.049 66.0199 260.495 65.8207 259.762 65.8207H257.562V69.9656H259.762Z" fill="#A2A5AA"/>
</svg>
